<svg width="273" height="82" viewBox="0 0 273 82" fill="none" xmlns="http://www.w3.org/2000/svg">
<g clip-path="url(#clip0_1_3)">
<path d="M106.035 63.8606H108.403L103.169 81.8758H100.428L96.0671 66.7182L91.7061 81.8758H89.2141L88.9649 81.7515L83.7316 63.8606H85.9744L90.2109 79.0182L94.5719 63.8606H97.4377L101.799 79.0182L106.035 63.8606V63.8606ZM156.997 72.8061C156.997 73.0545 156.997 73.4273 156.872 73.9242C156.872 74.4212 156.748 75.0424 156.498 75.6636C156.249 76.2849 156 77.0303 155.626 77.7758C155.252 78.5212 154.629 79.1424 153.882 79.7636C153.134 80.3848 152.262 80.8818 151.141 81.2545C150.019 81.6273 148.773 81.8758 147.153 81.8758H140.425V63.8606H147.153C148.649 63.8606 150.019 64.1091 151.141 64.4818C152.262 64.8545 153.134 65.3515 153.882 65.9727C154.629 66.5939 155.128 67.2152 155.626 67.9606C156 68.7061 156.374 69.3273 156.498 70.0727C156.748 70.6939 156.872 71.3152 156.872 71.8121C156.997 72.1848 156.997 72.5576 156.997 72.8061M142.668 79.8879H146.904C148.026 79.8879 149.147 79.7636 150.144 79.5152C151.141 79.2667 152.013 78.7697 152.76 78.2727C153.508 77.6515 154.006 76.9061 154.505 76.0364C154.879 75.1667 155.128 74.0485 155.128 72.8061C155.128 71.5636 154.879 70.5697 154.505 69.5758C154.131 68.7061 153.508 67.9606 152.76 67.3394C152.013 66.7182 151.141 66.3455 150.144 66.097C149.147 65.8485 148.026 65.7242 146.904 65.7242H142.668V79.8879V79.8879ZM179.051 81.8758V80.0121H167.962V73.8H179.051V71.9364H167.962V65.8485H179.051V63.9848H165.843V82H179.051V81.8758ZM130.208 81.8758V80.0121H119.118V73.8H130.208V71.9364H119.118V65.8485H130.208V63.9848H117.125V82H130.208V81.8758ZM70.0256 71.5636H69.6518C66.0383 71.1909 64.2939 70.0727 64.2939 68.3333C64.2939 66.2212 66.7859 65.103 69.278 65.103C71.0224 65.103 72.5176 65.6 73.639 66.4697L75.1342 64.9788C73.5144 63.6121 71.6454 62.9909 69.278 62.9909C65.1661 62.9909 62.1757 65.2273 62.1757 68.2091C62.1757 70.3212 63.4217 72.9303 69.4026 73.4273H69.7764C73.5144 73.9242 74.262 74.9182 74.262 76.6576C74.262 78.7697 71.77 79.8879 69.278 79.8879C67.0351 79.8879 65.1661 79.0182 64.1693 77.6515L62.6741 79.1424C64.1693 80.8818 66.5367 82 69.278 82C73.3898 82 76.3802 79.7636 76.3802 76.7818C76.3802 72.9303 73.1406 71.9364 70.0256 71.5636M189.393 81.8758H191.511V66.097L204.096 81.8758H207.086V63.8606H204.968V79.6394L192.383 63.8606H189.393V81.8758ZM249.201 0C262.284 0 273 10.4364 273 23.1091C273 35.7818 262.284 46.2182 249.201 46.2182C236.118 46.2182 225.527 35.7818 225.527 23.3576C225.527 8.94545 237.863 0 249.201 0M249.201 41.6212C259.419 41.6212 267.767 33.4212 267.767 23.2333C267.767 13.0455 259.419 4.72121 249.201 4.72121C238.984 4.72121 230.636 13.0455 230.636 23.3576C230.636 33.6697 239.109 41.6212 249.201 41.6212ZM74.6358 0C87.7189 0 98.4345 10.4364 98.4345 23.1091C98.4345 35.7818 87.7189 46.2182 74.6358 46.2182C61.5527 46.2182 50.9617 35.7818 50.9617 23.3576C50.9617 8.94545 63.1725 0 74.6358 0ZM74.6358 41.6212C84.853 41.6212 93.2013 33.4212 93.2013 23.2333C93.2013 13.0455 84.853 4.72121 74.6358 4.72121C64.4185 4.72121 56.0703 13.0455 56.0703 23.3576C56.0703 33.6697 64.5431 41.6212 74.6358 41.6212ZM207.086 45.597V40.8758H179.051V25.3455H207.086V20.6242H179.051V5.46667H207.086V0.745455H173.942V45.4727H207.086V45.597ZM5.10863 45.597V25.3455H32.0224V20.6242H5.10863V5.46667H32.0224V0.745455H0V45.4727H5.10863V45.597V45.597ZM142.045 29.6939C146.655 28.9485 149.272 27.3333 151.016 25.4697C156.997 19.5061 155.875 8.69697 149.022 3.85152H148.898C148.275 3.35455 147.527 2.98182 146.78 2.60909C145.035 1.86364 142.294 0.869697 135.815 0.869697L117.125 0.745455V45.4727H122.233V5.46667H136.687C140.176 5.46667 142.543 5.71515 145.16 7.08182C148.649 8.82121 150.268 13.5424 149.645 17.1455C149.022 20.7485 146.281 23.6061 142.792 24.6C140.799 25.2212 137.435 25.2212 132.201 25.2212L148.399 45.4727H154.879L142.045 29.6939Z" fill="#343F48"/>
</g>
<defs>
<clipPath id="clip0_1_3">
<rect width="273" height="82" fill="white"/>
</clipPath>
</defs>
</svg>
